<svg width="533" height="498" viewBox="0 0 533 498" fill="none" xmlns="http://www.w3.org/2000/svg">
<path d="M332.264 166.057L326.13 169.54C323.845 170.827 320.848 170.163 319.472 167.891L299.375 136.524V136.549C284.616 113.579 247.531 113.033 232.398 136.549L208.265 173.991L221.46 180.857L245.565 143.364C254.592 129.296 277.049 129.221 286.18 143.39L305.846 173.94C307.148 175.943 306.427 178.45 304.067 179.712L297.699 183.246L327.001 192.383L332.264 166.057ZM325.25 160.116L336.244 153.89C339.644 151.98 344.045 154.58 343.333 158.181L335.055 199.3C334.203 201.496 331.552 202.665 329.136 201.9L319.631 198.938C323.218 210.103 320.933 221.335 309.62 228.992C293.775 239.703 275.401 260.662 275.326 279.172L295.451 264.196C298.42 262 302.99 263.817 303.093 267.317L303.467 278.979L338.22 278.928C349.289 278.928 355.929 268.386 350.488 259.947L324.051 218.803C322.778 216.826 323.517 214.226 325.774 213.056L347.061 202.034C347.135 202.009 347.22 201.984 347.276 201.942C337.555 188.749 336.947 163.76 355.985 159.536C392.695 151.383 388.022 116.129 385.821 99.4105L385.737 98.9057C381.12 95.1363 376.26 91.5857 371.166 88.2706C360.04 90.3657 348.578 90.4161 337.508 88.4641C337.087 88.3968 336.684 88.2706 336.31 88.1023C327.657 84.7368 319.828 79.6801 313.478 73.2687C309.948 69.6929 306.867 65.6879 304.376 61.2958C296.678 59.7729 288.952 58.7212 281.226 58.1238C273.631 72.6461 259.781 82.4314 240.826 83.1466C224.447 83.7692 229.991 100.1 235.254 103.012C240.508 105.923 244.965 109.448 248.178 113.722C270.026 105.999 295.348 113.504 307.457 132.325L325.25 160.116ZM308.047 195.337L285.506 188.303C281.572 187.158 281.123 182.581 284.447 180.739L289.991 177.659C284.607 175.177 280.439 175.177 278.548 180.974C258.348 242.269 237.005 250.473 219.165 245.727C210.803 243.506 204.322 238.735 197.767 234.705L181.547 260.014C175.975 268.697 182.877 279.096 193.731 279.096H246.586C249.161 279.096 251.259 280.956 251.259 283.27L251.23 305.356C251.23 307.67 249.133 309.555 246.557 309.555L193.731 309.504C176.106 309.504 160.682 301.326 152.188 288.082C139.265 298.507 128.533 307.401 131.904 324.144C150.54 343.176 174.486 358.54 202.702 368.123C248.842 383.84 297.68 381.241 339.363 364.379C344.429 362.326 349.392 360.063 354.225 357.606C353.588 347.493 351.228 314.965 336.572 315.419C324.838 315.781 313.16 315.276 302.699 313.223L303.046 320.762C303.364 324.767 298.457 326.702 295.404 324.439L258.666 297.01C257.018 295.217 257.308 292.575 259.303 291.095L266.607 285.634C261.86 262.69 284.101 235.74 304.011 222.286C314.209 215.395 313.169 204.693 308.047 195.337ZM292.07 169.296L278.079 147.613C272.451 138.863 258.994 139.216 253.628 147.546L227.191 188.715C225.917 190.718 223.052 191.407 220.823 190.238L199.555 179.174C197.879 178.29 197.036 176.65 197.242 175.026C196.765 174.958 196.287 174.832 195.81 174.714C177.277 169.75 180.601 160.259 185.667 145.687C190.921 130.592 198.572 108.573 175.844 79.5286C141.756 97.3912 114.017 125.485 98.9681 161.219C81.4746 202.674 84.3683 246.552 103.135 284.002C108.314 294.309 114.682 304.111 122.146 313.24C124.084 298.785 135.706 290.203 148.161 280.089C143.863 268.52 145.108 255.782 152.141 244.835L170.009 217.095L158.538 211.66C155.082 210.036 155.222 205.408 158.987 204.053C163.735 202.362 202.843 188.244 204.172 188.05C206.72 187.689 209.108 189.245 209.51 191.534L217.105 233.99C217.264 234.638 217.236 235.328 217.03 235.967C218.622 236.682 220.214 237.28 221.806 237.709C235.104 241.243 251.586 233.249 269.585 178.635C272.854 168.699 281.797 165.484 292.07 169.296ZM202.028 166.957L224.297 132.351C228.362 126.057 233.69 121.143 239.777 117.584C237.389 114.724 234.093 112.242 230.328 110.147C217.189 102.852 214.586 75.734 240.47 74.7496C254.274 74.2279 264.575 67.7156 271.028 57.6022C240.526 56.8365 210.634 63.1553 184.094 75.4395C225.131 128.623 174.617 160.251 198.507 166.646L202.028 166.957ZM171.873 208.479L178.672 211.702C181.032 212.795 181.884 215.395 180.507 217.566L160.242 249.025C145.717 270.851 162.714 301.116 193.74 301.141L241.922 301.166V287.477H193.74C175.741 287.477 164.297 270.136 173.456 255.849L193.047 225.273C194.321 223.321 197.083 222.606 199.312 223.675L206.429 227.107L201.222 198.012L171.873 208.479ZM293.344 311.969L293.054 305.339C292.951 302.933 295.067 300.947 297.886 300.998L338.239 301.023C367.682 301.048 386.814 272.45 371.709 248.908L347.66 211.416L334.465 218.239L358.57 255.731C367.541 269.681 356.603 287.308 338.211 287.334L298.925 287.384C296.406 287.384 294.337 285.575 294.28 283.303L294.037 276.152L269.614 294.326L293.344 311.969ZM357.615 210.128L379.809 244.734C397.087 271.684 378.133 304.548 345.534 308.915C359.179 315.638 362.129 339.062 363.243 352.701C395.683 333.837 421.352 305.55 434.865 270.439C425.491 271.962 413.71 271.726 406.33 266.955C399.616 262.614 398.604 255.984 402.135 249.211H402.107C410.367 233.3 413.26 220.948 412.09 212.408C409.571 194.117 389.315 199.914 375.08 208.117C368.684 211.794 362.737 212.08 357.615 210.128ZM351.134 37.5688V37.6193C370.754 14.7505 402.903 3.98919 434.172 9.50025V9.52549C436.326 9.90411 437.946 11.5785 437.946 13.6314C438.161 45.6377 416.154 74.4467 382.385 85.3931C446.337 130.66 471.051 208.504 441.795 277.885C423.402 321.511 387.086 354.299 343.23 372.044C299.478 389.764 248.224 392.507 199.78 376.125C199.546 376.058 199.303 375.982 199.087 375.889C169.139 365.633 143.788 349.251 124.15 328.932C124.075 328.839 123.963 328.738 123.888 328.646C111.92 316.193 102.096 302.319 94.6321 287.46C74.938 248.134 71.8569 202.076 90.1183 158.577C90.1745 158.358 90.2494 158.148 90.3618 157.954C106.797 119.225 137.401 89.0531 174.832 70.3996L177.483 69.1123C214.305 51.4601 257.439 44.83 300.152 51.9649C294.206 34.767 297.521 16.3828 308.73 1.81C310.004 0.144062 312.392 -0.428079 314.387 0.329167C332.105 7.11072 345.665 20.6402 351.134 37.5688ZM353.522 49.3987C354.449 60.4376 351.827 71.4345 346.04 81.1189C388.912 85.0986 426.633 55.8605 428.544 17.1737C398.623 13.337 368.974 26.0082 353.522 49.3987ZM343.652 61.6576C347.501 40.5052 335.692 19.3697 314.265 9.51708C306.567 21.2291 304.469 35.2718 308.768 48.6078C313.019 61.7754 323.049 72.7218 336.666 78.9649C340.14 73.681 342.537 67.8166 343.652 61.6576ZM396.235 108.169C398.089 128.8 396.31 159.233 358.195 167.697C345.721 170.465 348.643 193.721 358.598 200.924C361.623 203.12 365.556 203.641 370.014 201.041C384.398 192.762 403.034 187.352 414.347 197.348C427.701 209.127 420.668 233.409 410.601 252.778V252.753C409.112 255.731 408.765 258.213 411.771 260.174C417.849 264.086 430.464 263.127 438.077 261.2C455.037 206.763 438.63 148.783 396.235 108.169Z" fill="#1F2937"/>
<path d="M67.4869 344.21L30.4926 377.497L23.6568 369.9L60.6511 336.613L67.4869 344.21ZM77.7291 355.593L71.7582 360.966L44.598 330.781L50.5689 325.408L77.7291 355.593Z" fill="#1F2937"/>
<path d="M74.8496 394.578L65.0224 386.564L70.0772 380.366L79.9043 388.38C81.423 389.618 82.8607 390.379 84.2175 390.662C85.5887 390.928 86.8623 390.791 88.0382 390.25C89.2141 389.709 90.2629 388.874 91.1846 387.744C92.1206 386.596 92.7712 385.348 93.1361 383.999C93.5011 382.65 93.4516 381.286 92.9877 379.908C92.5237 378.53 91.5324 377.222 90.0138 375.983L82.9414 370.216L56.566 402.558L48.6196 396.078L80.0713 357.511L95.0901 369.759C98.1098 372.221 100.25 374.878 101.512 377.73C102.805 380.579 103.249 383.425 102.841 386.268C102.434 389.111 101.229 391.76 99.2272 394.214C97.1967 396.704 94.8659 398.391 92.2347 399.274C89.6036 400.156 86.7988 400.207 83.8203 399.424C80.8595 398.656 77.8692 397.041 74.8496 394.578Z" fill="#1F2937"/>
<path d="M133.977 396.975L141.885 400.557L138.45 439.114L165.172 411.108L173.08 414.691L136.167 452.602L129.815 449.724L133.977 396.975ZM129.711 395.042L137.588 398.611L124.322 431.701L118.483 444.59L109.174 440.372L129.711 395.042ZM169.469 413.055L177.377 416.638L156.839 461.968L147.499 457.736L153.339 444.847L169.469 413.055Z" fill="#1F2937"/>
<path d="M201.77 431.287L178.886 468.186L168.291 465.615L197.997 421.614L204.74 423.251L201.77 431.287ZM202.967 474.031L199.511 430.739L200.455 422.211L207.265 423.863L213.596 476.61L202.967 474.031ZM206.739 455.883L204.844 463.688L179.302 457.489L181.196 449.684L206.739 455.883Z" fill="#1F2937"/>
<path d="M244.755 464.077L247.762 429.721L257.943 430.613L254.936 464.969C254.646 468.283 253.67 471.068 252.009 473.324C250.35 475.558 248.204 477.2 245.573 478.251C242.965 479.303 240.095 479.692 236.962 479.418C233.716 479.134 230.892 478.338 228.491 477.03C226.089 475.722 224.272 473.882 223.038 471.509C221.807 469.114 221.343 466.18 221.647 462.707L231.896 463.604C231.737 465.42 231.861 466.883 232.267 467.994C232.695 469.106 233.367 469.931 234.28 470.469C235.194 471.006 236.32 471.334 237.66 471.451C238.954 471.564 240.104 471.356 241.111 470.826C242.118 470.297 242.934 469.465 243.56 468.33C244.208 467.198 244.606 465.78 244.755 464.077Z" fill="#1F2937"/>
<path d="M286.021 438.155L275.13 480.186L264.249 480.878L279.545 430.039L286.47 429.599L286.021 438.155ZM299.861 478.614L283.701 438.303L282.07 429.879L289.062 429.434L310.776 477.92L299.861 478.614ZM298.071 460.165L298.581 468.181L272.35 469.848L271.84 461.832L298.071 460.165Z" fill="#1F2937"/>
<path d="M332.568 423.099L340.799 420.336L364.543 450.908L365.037 412.202L373.267 409.439L372.057 462.339L365.447 464.558L332.568 423.099ZM328.129 424.589L336.327 421.837L349.15 455.101L353.652 468.516L343.964 471.768L328.129 424.589ZM369.508 410.701L377.739 407.939L393.573 455.118L383.852 458.381L379.35 444.966L369.508 410.701Z" fill="#1F2937"/>
<path d="M394.787 398.333L417.318 442.706L408.206 447.333L385.674 402.96L394.787 398.333Z" fill="#1F2937"/>
<path d="M445.462 406.017L453.951 400.327C455.646 403.223 456.535 406.207 456.618 409.278C456.721 412.337 455.966 415.284 454.355 418.119C452.763 420.942 450.273 423.489 446.885 425.759C444.235 427.536 441.555 428.673 438.845 429.173C436.123 429.654 433.436 429.534 430.787 428.814C428.156 428.081 425.634 426.754 423.221 424.832C420.809 422.91 418.588 420.435 416.558 417.407L414.636 414.539C412.606 411.511 411.17 408.509 410.329 405.535C409.493 402.529 409.246 399.663 409.587 396.938C409.947 394.201 410.866 391.664 412.346 389.329C413.825 386.993 415.861 384.956 418.454 383.218C421.899 380.909 425.224 379.586 428.427 379.25C431.649 378.901 434.649 379.386 437.427 380.707C440.223 382.014 442.693 383.98 444.836 386.604L436.318 392.313C435.107 390.71 433.83 389.522 432.489 388.748C431.134 387.955 429.683 387.652 428.135 387.839C426.594 387.995 424.876 388.707 422.984 389.976C421.564 390.927 420.502 392.023 419.797 393.263C419.092 394.504 418.742 395.905 418.746 397.466C418.75 399.027 419.124 400.751 419.868 402.639C420.618 404.495 421.729 406.521 423.201 408.717L425.161 411.641C426.594 413.78 428.017 415.555 429.43 416.967C430.83 418.361 432.236 419.394 433.647 420.066C435.064 420.708 436.493 420.957 437.934 420.814C439.38 420.64 440.861 420.045 442.375 419.03C444.154 417.838 445.431 416.571 446.205 415.229C446.979 413.887 447.295 412.455 447.152 410.932C447.028 409.397 446.465 407.758 445.462 406.017ZM413.166 383.8L412.87 371.325L421.757 365.369L419.81 379.347L413.166 383.8Z" fill="#1F2937"/>
<path d="M448.618 360.703L481.099 398.408L473.356 405.078L440.876 367.374L448.618 360.703Z" fill="#1F2937"/>
<path d="M499.662 356.056L506.545 348.503C508.883 350.911 510.459 353.596 511.274 356.558C512.104 359.504 512.076 362.545 511.189 365.683C510.318 368.805 508.508 371.873 505.761 374.887C503.612 377.245 501.282 378.99 498.77 380.123C496.241 381.24 493.604 381.766 490.859 381.7C488.129 381.617 485.363 380.93 482.561 379.641C479.759 378.351 477.011 376.479 474.316 374.023L471.765 371.698C469.07 369.242 466.959 366.67 465.431 363.983C463.901 361.263 462.977 358.54 462.657 355.813C462.352 353.069 462.639 350.386 463.517 347.765C464.396 345.143 465.886 342.679 467.989 340.371C470.783 337.306 473.694 335.227 476.724 334.135C479.77 333.026 482.799 332.781 485.812 333.399C488.84 334.001 491.708 335.319 494.415 337.355L487.508 344.934C485.949 343.668 484.426 342.819 482.938 342.388C481.434 341.941 479.952 341.994 478.494 342.546C477.034 343.065 475.536 344.167 474.002 345.851C472.85 347.114 472.081 348.432 471.693 349.805C471.305 351.178 471.299 352.622 471.676 354.136C472.053 355.651 472.828 357.236 474.002 358.892C475.174 360.515 476.737 362.217 478.69 363.997L481.292 366.368C483.195 368.103 485.002 369.487 486.711 370.521C488.403 371.539 490.015 372.206 491.546 372.522C493.075 372.806 494.522 372.707 495.887 372.224C497.25 371.709 498.546 370.778 499.774 369.431C501.217 367.848 502.153 366.312 502.585 364.824C503.016 363.337 502.98 361.87 502.477 360.426C501.99 358.965 501.052 357.508 499.662 356.056ZM462.993 342.2L459.725 330.157L466.931 322.25L468.38 336.288L462.993 342.2Z" fill="#1F2937"/>
</svg>
